# xmcd
#
# Track frame offsets: 
#        182
#        18657
#        35847
#        45160
#        56765
#        70105
#        93322
#        114607
#        129822
#        142685
#        162202
#        175430
#        192810
#        209435
#        221202
#        236510
#        249240
#        264842
#        277245
#        288812
#
# Disc length: 4054 seconds
#
# Revision: 6
# Processed by: cddbd v1.5.2PL0 Copyright (c) Steve Scherf et al.
# Submitted via: ExactAudioCopy v1.2
#
DISCID=200fd414
DTITLE=Bobby Womack - The Very Best Of Bobby Womack 1968-1975
DYEAR=1991
DGENRE=Soul
TTITLE0=I Can Understand It
TTITLE1=Harry Hippie
TTITLE2=I'm A Midnight Mover
TTITLE3=What Is This
TTITLE4=Somebody Special
TTITLE5=That's The Way I Feel About Cha
TTITLE6=Communication
TTITLE7=California Dreaming
TTITLE8=If You Don't Want My Love Give It Back
TTITLE9=I Wish It Would Rain
TTITLE10=Nobody Wants You When You're Down And Out
TTITLE11=Across 110th Street
TTITLE12=If You Want My Love, Put Something Down On It
TTITLE13=Lookin For A Love
TTITLE14=I Don't Wanna Be Hurt By Ya Love Again
TTITLE15=Got To Get You Back
TTITLE16=Woman's Gotta Have It
TTITLE17=There's One Thing That Beats Failing
TTITLE18=You're Messing Up A Good Thing
TTITLE19=Love Ain't Something You Can Get For Free
EXTD=
EXTT0=
EXTT1=
EXTT2=
EXTT3=
EXTT4=
EXTT5=
EXTT6=
EXTT7=
EXTT8=
EXTT9=
EXTT10=
EXTT11=
EXTT12=
EXTT13=
EXTT14=
EXTT15=
EXTT16=
EXTT17=
EXTT18=
EXTT19=
PLAYORDER=
